# Blender v2.72 (sub 0) OBJ File: ''
# www.blender.org
mtllib Circle.mtl
o Cylinder
v 0.122698 1.760589 -0.532706
v 0.063784 3.759719 -0.535669
v 0.316656 1.766346 -0.504841
v 0.257742 3.765476 -0.507804
v 0.501452 1.771888 -0.439655
v 0.442538 3.771018 -0.442618
v 0.669984 1.777003 -0.339654
v 0.611070 3.776133 -0.342617
v 0.815775 1.781494 -0.208680
v 0.756861 3.780624 -0.211643
v 0.933223 1.785187 -0.051767
v 0.874309 3.784317 -0.054730
v 1.017815 1.787943 0.125056
v 0.958901 3.787072 0.122093
v 1.066298 1.789653 0.314992
v 1.007384 3.788783 0.312029
v 1.076811 1.790253 0.510743
v 1.017897 3.789383 0.507780
v 1.048950 1.789719 0.704787
v 0.990036 3.788849 0.701824
v 0.983784 1.788073 0.889665
v 0.924870 3.787203 0.886703
v 0.883819 1.785377 1.058275
v 0.824904 3.784507 1.055312
v 0.752895 1.781735 1.204135
v 0.694276 3.770851 1.201187
v 0.596044 1.777287 1.321641
v 0.537130 3.776416 1.318678
v 0.419295 1.772203 1.406276
v 0.360381 3.771333 1.403313
v 0.229438 1.766680 1.454789
v 0.170524 3.765810 1.451826
v 0.033771 1.760929 1.465315
v -0.025143 3.760059 1.462353
v -0.160187 1.755172 1.437450
v -0.219101 3.754302 1.434487
v -0.344983 1.749629 1.372264
v -0.403897 3.748760 1.369301
v -0.513515 1.744515 1.272262
v -0.572429 3.743645 1.269300
v -0.659306 1.740024 1.141288
v -0.718220 3.739154 1.138325
v -0.776754 1.736330 0.984375
v -0.835668 3.735460 0.981412
v -0.861345 1.733575 0.807552
v -0.920259 3.732705 0.804590
v -0.909829 1.731865 0.617616
v -0.968743 3.730995 0.614653
v -0.920342 1.731265 0.421865
v -0.979256 3.730395 0.418902
v -0.892480 1.731799 0.227821
v -0.951394 3.730929 0.224858
v -0.827314 1.733445 0.042942
v -0.886228 3.732575 0.039979
v -0.727348 1.736141 -0.125667
v -0.786262 3.735271 -0.128630
v -0.596424 1.739783 -0.271527
v -0.655338 3.738913 -0.274490
v -0.439574 1.744232 -0.389032
v -0.498488 3.743361 -0.391995
v -0.262824 1.749315 -0.473668
v -0.321738 3.748445 -0.476631
v -0.072967 1.754838 -0.522181
v -0.131882 3.753968 -0.525144
vt 0.487905 0.495323
vt 0.488295 0.497456
vt 0.548750 0.993813
vt 0.489100 0.499485
vt 0.645197 0.974642
vt 0.490293 0.501330
vt 0.736079 0.937050
vt 0.491827 0.502919
vt 0.493648 0.504192
vt 0.887573 0.812986
vt 0.495687 0.505098
vt 0.497863 0.505623
vt 0.980231 0.640383
vt 0.500107 0.505734
vt 0.999674 0.543776
vt 0.502020 0.505398
vt 0.503830 0.504678
vt 0.980833 0.348098
vt 0.505462 0.503600
vt 0.943127 0.256521
vt 0.507012 0.502414
vt 0.881803 0.180422
vt 0.508129 0.500709
vt 0.813278 0.111566
vt 0.508922 0.498818
vt 0.732304 0.057177
vt 0.509341 0.496792
vt 0.509368 0.494706
vt 0.547010 0.000426
vt 0.508998 0.492639
vt 0.449543 0.000100
vt 0.508243 0.490665
vt 0.353812 0.018767
vt 0.507128 0.488858
vt 0.263488 0.055737
vt 0.505692 0.487282
vt 0.182034 0.109621
vt 0.503987 0.485994
vt 0.112581 0.178378
vt 0.502085 0.485021
vt 0.057805 0.259398
vt 0.500045 0.484414
vt 0.019802 0.349677
vt 0.497939 0.484187
vt 0.495843 0.484404
vt 0.000100 0.544001
vt 0.493846 0.485050
vt 0.019279 0.640373
vt 0.492032 0.486096
vt 0.056920 0.731189
vt 0.490475 0.487496
vt 0.489239 0.489191
vt 0.181183 0.882469
vt 0.488378 0.491113
vt 0.263025 0.937087
vt 0.353946 0.974687
vt 0.487926 0.493184
vt 0.450430 0.993832
vt 0.817916 0.882470
vt 0.942380 0.731250
vt 0.999900 0.445101
vt 0.642478 0.019706
vt 0.000100 0.445783
vt 0.111587 0.812941
vn 0.142100 0.002700 -0.989800
vn 0.332400 0.008400 -0.943100
vn 0.509900 0.013800 -0.860100
vn 0.667900 0.018600 -0.744100
vn 0.800100 0.022700 -0.599400
vn 0.901600 0.025900 -0.431700
vn 0.968500 0.028200 -0.247500
vn 0.998100 0.029300 -0.053700
vn 0.989400 0.029400 0.142100
vn 0.942700 0.028300 0.332500
vn 0.859700 0.026100 0.510100
vn 0.743700 0.022900 0.668100
vn 0.599100 0.018800 0.800400
vn 0.431500 0.014100 0.902000
vn 0.247300 0.008700 0.968900
vn 0.053600 0.003100 0.998600
vn -0.142100 -0.002700 0.989800
vn -0.332400 -0.008400 0.943100
vn -0.509900 -0.013800 0.860100
vn -0.667900 -0.018600 0.744100
vn -0.800100 -0.022700 0.599400
vn -0.901600 -0.025900 0.431700
vn -0.968500 -0.028200 0.247500
vn -0.998100 -0.029300 0.053700
vn -0.989400 -0.029400 -0.142100
vn -0.942700 -0.028300 -0.332500
vn -0.859700 -0.026100 -0.510100
vn -0.743700 -0.022900 -0.668100
vn -0.599100 -0.018800 -0.800400
vn -0.431500 -0.014100 -0.902000
vn -0.029500 0.999600 -0.001500
vn -0.053600 -0.003100 -0.998600
vn -0.247300 -0.008700 -0.968900
vn 0.285800 0.896000 0.339800
usemtl None
s off
f 2/1/1 4/2/1 3/3/1
f 4/2/2 6/4/2 5/5/2
f 5/5/3 6/4/3 8/6/3
f 7/7/4 8/6/4 10/8/4
f 10/8/5 12/9/5 11/10/5
f 11/10/6 12/9/6 14/11/6
f 14/11/7 16/12/7 15/13/7
f 16/12/8 18/14/8 17/15/8
f 17/15/9 18/14/9 20/16/9
f 20/16/10 22/17/10 21/18/10
f 22/17/11 24/19/11 23/20/11
f 24/19/12 26/21/12 25/22/12
f 25/22/13 26/21/13 28/23/13
f 27/24/14 28/23/14 30/25/14
f 29/26/15 30/25/15 32/27/15
f 32/27/16 34/28/16 33/29/16
f 34/28/17 36/30/17 35/31/17
f 36/30/18 38/32/18 37/33/18
f 38/32/19 40/34/19 39/35/19
f 40/34/20 42/36/20 41/37/20
f 42/36/21 44/38/21 43/39/21
f 43/39/22 44/38/22 46/40/22
f 45/41/23 46/40/23 48/42/23
f 47/43/24 48/42/24 50/44/24
f 50/44/25 52/45/25 51/46/25
f 52/45/26 54/47/26 53/48/26
f 54/47/27 56/49/27 55/50/27
f 55/50/28 56/49/28 58/51/28
f 58/51/29 60/52/29 59/53/29
f 60/52/30 62/54/30 61/55/30
f 44/38/31 4/2/31 60/52/31
f 63/56/32 64/57/32 2/1/32
f 61/55/33 62/54/33 64/57/33
f 1/58/1 2/1/1 3/3/1
f 3/3/2 4/2/2 5/5/2
f 7/7/3 5/5/3 8/6/3
f 9/59/4 7/7/4 10/8/4
f 9/59/5 10/8/5 11/10/5
f 13/60/6 11/10/6 14/11/6
f 13/60/7 14/11/7 15/13/7
f 15/13/8 16/12/8 17/15/8
f 19/61/9 17/15/9 20/16/9
f 19/61/10 20/16/10 21/18/10
f 21/18/11 22/17/11 23/20/11
f 23/20/12 24/19/12 25/22/12
f 27/24/13 25/22/13 28/23/13
f 29/26/14 27/24/14 30/25/14
f 31/62/15 29/26/15 32/27/15
f 31/62/16 32/27/16 33/29/16
f 33/29/17 34/28/17 35/31/17
f 35/31/18 36/30/18 37/33/18
f 37/33/19 38/32/19 39/35/19
f 39/35/20 40/34/20 41/37/20
f 41/37/21 42/36/21 43/39/21
f 45/41/22 43/39/22 46/40/22
f 47/43/23 45/41/23 48/42/23
f 49/63/24 47/43/24 50/44/24
f 49/63/25 50/44/25 51/46/25
f 51/46/26 52/45/26 53/48/26
f 53/48/27 54/47/27 55/50/27
f 57/64/28 55/50/28 58/51/28
f 57/64/29 58/51/29 59/53/29
f 59/53/30 60/52/30 61/55/30
f 8/6/31 6/4/31 4/2/31
f 8/6/31 16/12/31 10/8/31
f 12/9/31 10/8/31 14/11/31
f 20/16/31 18/14/31 16/12/31
f 16/12/31 8/6/31 20/16/31
f 28/23/34 26/21/34 24/19/34
f 28/23/31 36/30/31 30/25/31
f 32/27/31 30/25/31 34/28/31
f 36/30/31 28/23/31 38/32/31
f 44/38/31 42/36/31 40/34/31
f 48/42/31 46/40/31 44/38/31
f 44/38/31 54/47/31 48/42/31
f 52/45/31 50/44/31 54/47/31
f 28/23/31 44/38/31 40/34/31
f 64/57/31 62/54/31 60/52/31
f 4/2/31 2/1/31 64/57/31
f 44/38/31 58/51/31 54/47/31
f 8/6/31 4/2/31 20/16/31
f 22/17/31 20/16/31 4/2/31
f 44/38/31 60/52/31 58/51/31
f 28/23/31 24/19/31 22/17/31
f 63/56/33 61/55/33 64/57/33
f 28/23/31 22/17/31 4/2/31
f 4/2/31 64/57/31 60/52/31
f 44/38/31 28/23/31 4/2/31
f 10/8/31 16/12/31 14/11/31
f 28/23/31 40/34/31 38/32/31
f 54/47/31 50/44/31 48/42/31
f 30/25/31 36/30/31 34/28/31
f 1/58/32 63/56/32 2/1/32
f 58/51/31 56/49/31 54/47/31
