# Blender v2.72 (sub 0) OBJ File: ''
# www.blender.org
mtllib Cone.mtl
o Cone
v 0.000000 -5.000000 -5.000000
v 0.000000 5.000000 0.000000
v 4.330127 -5.000000 2.500000
v -4.330127 -5.000000 2.500000
vt 0.002002 0.498999
vt 0.998999 0.002002
vt 0.998999 0.498999
vt 0.002002 0.998999
vt 0.998999 0.502002
vt 0.998999 0.998999
vt 0.997998 0.501001
vt 0.001001 0.997998
vt 0.001001 0.501001
vt 0.997998 0.001001
vt 0.001001 0.497998
vt 0.001001 0.001001
vn -0.000000 0.242500 0.970100
vn 0.840200 0.242500 -0.485100
vn -0.840200 0.242500 -0.485100
vn 0.000000 -1.000000 0.000000
usemtl Material.001
s off
f 3/1/1 2/2/1 4/3/1
f 1/4/2 2/5/2 3/6/2
f 4/7/3 2/8/3 1/9/3
f 1/10/4 3/11/4 4/12/4
