# Blender v2.72 (sub 0) OBJ File: ''
# www.blender.org
mtllib uv.mtl
o Grid
v 3.792999 2.209779 2.934229
v 4.011586 2.238817 2.906669
v 4.230172 2.267855 2.879109
v 4.448758 2.296893 2.851549
v 4.667345 2.325932 2.823990
v 4.885931 2.354970 2.796430
v 5.104517 2.384008 2.768870
v 5.323103 2.413046 2.741310
v 5.541689 2.442085 2.713751
v 5.760276 2.471123 2.686191
v 3.758904 2.264625 2.721597
v 3.977490 2.293663 2.694038
v 4.196077 2.322701 2.666478
v 4.414663 2.351740 2.638918
v 4.633249 2.380778 2.611358
v 4.851836 2.409816 2.583798
v 5.070422 2.438854 2.556239
v 5.289008 2.467893 2.528679
v 5.507595 2.496931 2.501119
v 5.726181 2.525969 2.473559
v 3.724809 2.319471 2.508966
v 3.943395 2.348510 2.481406
v 4.161982 2.377548 2.453846
v 4.380568 2.406586 2.426287
v 4.599154 2.435624 2.398727
v 4.817740 2.464663 2.371167
v 5.036327 2.451150 2.343607
v 5.254913 2.522739 2.316047
v 5.473499 2.551777 2.288488
v 5.692086 2.580815 2.260928
v 3.690714 2.374318 2.296335
v 3.909300 2.403356 2.268775
v 4.127887 2.432394 2.241215
v 4.346473 2.461432 2.213655
v 4.570850 2.431578 2.169976
v 4.783646 2.519509 2.158536
v 5.002232 2.548547 2.130976
v 5.220818 2.577585 2.103416
v 5.439404 2.606623 2.075856
v 5.657990 2.635662 2.048296
v 3.656619 2.429164 2.083703
v 3.875205 2.458202 2.056143
v 4.093791 2.487241 2.028584
v 4.312378 2.516279 2.001024
v 4.530964 2.545317 1.973464
v 4.749550 2.574355 1.945904
v 4.968137 2.603393 1.918344
v 5.186723 2.632432 1.890785
v 5.405309 2.661470 1.863225
v 5.623896 2.690508 1.835665
v 3.622524 2.484010 1.871072
v 3.841110 2.513049 1.843512
v 4.059696 2.542087 1.815952
v 4.278283 2.571125 1.788392
v 4.496869 2.600163 1.760833
v 4.715456 2.629202 1.733273
v 4.948038 2.634755 1.702972
v 5.152628 2.687278 1.678153
v 5.371214 2.716316 1.650593
v 5.589800 2.745354 1.623034
v 3.588429 2.538857 1.658440
v 3.807015 2.567895 1.630880
v 4.025601 2.596933 1.603321
v 4.244188 2.625972 1.575761
v 4.458889 2.694513 1.559014
v 4.681360 2.684048 1.520641
v 4.904393 2.667871 1.480706
v 5.113014 2.798242 1.480882
v 5.337119 2.732377 1.436021
v 5.555705 2.800201 1.410402
v 3.554334 2.593703 1.445809
v 3.772920 2.622741 1.418249
v 3.991506 2.651780 1.390689
v 4.210093 2.680818 1.363130
v 4.428679 2.744722 1.335570
v 4.658193 2.712663 1.315602
v 4.865851 2.767932 1.280450
v 5.084438 2.820298 1.252890
v 5.303024 2.826009 1.225331
v 5.521610 2.855047 1.197771
v 3.520239 2.648550 1.233177
v 3.738825 2.677588 1.205618
v 3.957411 2.706626 1.178058
v 4.175998 2.735664 1.150498
v 4.394584 2.764702 1.122938
v 4.613170 2.793741 1.095379
v 4.831757 2.822779 1.067819
v 5.050343 2.851817 1.040259
v 5.268929 2.880855 1.012699
v 5.487515 2.909893 0.985139
v 3.486144 2.703396 1.020546
v 3.704730 2.732434 0.992986
v 3.923316 2.761472 0.965426
v 4.141902 2.790510 0.937867
v 4.360489 2.819549 0.910307
v 4.579075 2.848587 0.882747
v 4.797661 2.877625 0.855187
v 5.016248 2.906663 0.827628
v 5.234834 2.935702 0.800068
v 5.453420 2.964740 0.772508
vt 1.000000 0.111111
vt 0.888889 0.111111
vt 0.888889 0.000000
vt 1.000000 0.222222
vt 0.888889 0.222222
vt 1.000000 0.333333
vt 0.888889 0.333333
vt 1.000000 0.444444
vt 0.888889 0.444444
vt 1.000000 0.555556
vt 0.888889 0.555556
vt 1.000000 0.666667
vt 0.888889 0.666667
vt 1.000000 0.777778
vt 0.888889 0.777778
vt 1.000000 0.888889
vt 0.888889 0.888889
vt 1.000000 1.000000
vt 0.888889 1.000000
vt 0.777778 0.111111
vt 0.777778 0.000000
vt 0.777778 0.222222
vt 0.777778 0.333333
vt 0.777778 0.444444
vt 0.777778 0.555556
vt 0.783025 0.663890
vt 0.777778 0.777778
vt 0.777778 0.888889
vt 0.777778 1.000000
vt 0.666667 0.111111
vt 0.666667 0.222222
vt 0.666667 0.333333
vt 0.666662 0.444450
vt 0.666667 0.555556
vt 0.666667 0.666667
vt 0.666667 0.777778
vt 0.666667 0.888889
vt 0.666667 1.000000
vt 0.555556 0.111111
vt 0.555556 0.000000
vt 0.555556 0.222222
vt 0.555556 0.333333
vt 0.555556 0.444444
vt 0.555556 0.555556
vt 0.555556 0.666667
vt 0.555556 0.777778
vt 0.555556 0.888889
vt 0.555556 1.000000
vt 0.444444 0.111111
vt 0.444444 0.000000
vt 0.444444 0.222222
vt 0.444444 0.333333
vt 0.444444 0.444444
vt 0.444444 0.555556
vt 0.447103 0.672188
vt 0.444444 0.777778
vt 0.444444 0.888889
vt 0.444444 1.000000
vt 0.333333 0.111111
vt 0.333333 0.000000
vt 0.333333 0.222222
vt 0.333333 0.333333
vt 0.333337 0.444441
vt 0.333333 0.555556
vt 0.333329 0.666671
vt 0.333338 0.777772
vt 0.338116 0.886358
vt 0.333333 1.000000
vt 0.222222 0.111111
vt 0.222222 0.222222
vt 0.222222 0.333333
vt 0.217922 0.446719
vt 0.229928 0.558748
vt 0.222222 0.666667
vt 0.219345 0.779300
vt 0.222222 0.888889
vt 0.222222 1.000000
vt 0.111111 0.111111
vt 0.111111 0.000000
vt 0.111111 0.222222
vt 0.111111 0.333333
vt 0.111111 0.444445
vt 0.111111 0.555556
vt 0.111111 0.666667
vt 0.111111 0.777778
vt 0.111111 0.888889
vt 0.111111 1.000000
vt 0.000000 0.111111
vt 0.000000 0.222222
vt 0.000000 0.333333
vt 0.000000 0.444445
vt 0.000000 0.555556
vt 0.000000 0.666667
vt 0.000000 0.777778
vt 0.000000 0.888889
vt 0.000000 1.000000
vt 1.000000 0.000000
vt 0.666667 0.000000
vt 0.222222 0.000000
vt 0.000000 0.000000
vn -0.094400 0.960200 0.262800
vn 0.067500 0.996600 0.046800
vn -0.131800 0.991300 -0.001200
vn -0.352700 0.890800 0.286300
vn -0.066500 0.903100 0.424300
vn -0.266600 0.922100 0.280600
vn -0.050200 0.859900 0.507900
vn -0.111100 0.981900 0.153300
vn -0.064900 0.899200 0.432600
vn 0.086200 0.968000 0.235900
vn 0.094600 0.987200 0.128500
vn -0.155900 0.847200 0.507900
vn 0.286700 0.957700 0.026100
vn -0.254500 0.925800 0.279600
vn -0.277300 0.928700 0.246200
vn 0.147600 0.981700 0.120300
vn 0.140400 0.896200 0.420800
vn -0.524300 0.838800 0.146900
vn 0.026800 0.915100 0.402300
vn -0.262800 0.955800 0.132000
vn -0.078400 0.930200 0.358500
vn -0.203500 0.939600 0.275000
vn -0.208300 0.962100 0.176000
vn -0.297900 0.949100 0.102600
vn 0.170700 0.960400 0.220400
vn 0.089500 0.967800 0.235300
vn 0.009200 0.968600 0.248400
vn -0.227000 0.960500 0.161000
vn -0.271900 0.920400 0.281000
vn -0.516500 0.826300 0.224500
vn -0.052300 0.865900 0.497500
vn -0.119600 0.988500 0.093000
vn -0.237100 0.930800 0.278100
vn 0.081700 0.974700 0.208000
vn -0.228500 0.960300 0.159800
vn -0.150400 0.872500 0.464900
vn 0.291800 0.954800 0.055800
vn -0.068300 0.907500 0.414400
vn 0.143900 0.987100 0.069700
vn -0.007200 0.989000 0.147800
usemtl None
s off
f 2/1/1 12/2/1 11/3/1
f 2/1/1 3/4/1 13/5/1
f 3/4/1 4/6/1 14/7/1
f 5/8/1 15/9/1 14/7/1
f 6/10/1 16/11/1 15/9/1
f 7/12/1 17/13/1 16/11/1
f 7/12/1 8/14/1 18/15/1
f 9/16/1 19/17/1 18/15/1
f 9/16/1 10/18/1 20/19/1
f 12/2/1 22/20/1 21/21/1
f 13/5/1 23/22/1 22/20/1
f 14/7/1 24/23/1 23/22/1
f 15/9/1 25/24/1 24/23/1
f 15/9/1 16/11/1 26/25/1
f 17/13/2 27/26/2 26/25/2
f 17/13/1 18/15/1 28/27/1
f 18/15/1 19/17/1 29/28/1
f 20/19/1 30/29/1 29/28/1
f 21/21/1 22/20/1 32/30/1
f 23/22/1 33/31/1 32/30/1
f 23/22/1 24/23/1 34/32/1
f 24/23/3 25/24/3 35/33/3
f 26/25/4 36/34/4 35/33/4
f 27/26/5 37/35/5 36/34/5
f 27/26/6 28/27/6 38/36/6
f 28/27/1 29/28/1 39/37/1
f 29/28/1 30/29/1 40/38/1
f 32/30/1 42/39/1 41/40/1
f 33/31/1 43/41/1 42/39/1
f 34/32/1 44/42/1 43/41/1
f 35/33/7 45/43/7 44/42/7
f 35/33/4 36/34/4 46/44/4
f 36/34/1 37/35/1 47/45/1
f 38/36/1 48/46/1 47/45/1
f 39/37/1 49/47/1 48/46/1
f 40/38/1 50/48/1 49/47/1
f 42/39/1 52/49/1 51/50/1
f 43/41/1 53/51/1 52/49/1
f 44/42/1 54/52/1 53/51/1
f 45/43/1 55/53/1 54/52/1
f 45/43/1 46/44/1 56/54/1
f 46/44/8 47/45/8 57/55/8
f 47/45/1 48/46/1 58/56/1
f 48/46/1 49/47/1 59/57/1
f 50/48/1 60/58/1 59/57/1
f 52/49/1 62/59/1 61/60/1
f 53/51/1 63/61/1 62/59/1
f 53/51/1 54/52/1 64/62/1
f 54/52/9 55/53/9 65/63/9
f 56/54/10 66/64/10 65/63/10
f 57/55/11 67/65/11 66/64/11
f 57/55/12 58/56/12 68/66/12
f 59/57/13 69/67/13 68/66/13
f 60/58/14 70/68/14 69/67/14
f 61/60/1 62/59/1 72/69/1
f 62/59/1 63/61/1 73/70/1
f 64/62/1 74/71/1 73/70/1
f 64/62/15 65/63/15 75/72/15
f 66/64/16 76/73/16 75/72/16
f 66/64/17 67/65/17 77/74/17
f 67/65/18 68/66/18 78/75/18
f 69/67/19 79/76/19 78/75/19
f 69/67/14 70/68/14 80/77/14
f 72/69/1 82/78/1 81/79/1
f 73/70/1 83/80/1 82/78/1
f 74/71/1 84/81/1 83/80/1
f 74/71/20 75/72/20 85/82/20
f 76/73/21 86/83/21 85/82/21
f 76/73/22 77/74/22 87/84/22
f 77/74/23 78/75/23 88/85/23
f 79/76/1 89/86/1 88/85/1
f 79/76/1 80/77/1 90/87/1
f 81/79/1 82/78/1 92/88/1
f 82/78/1 83/80/1 93/89/1
f 84/81/1 94/90/1 93/89/1
f 84/81/1 85/82/1 95/91/1
f 85/82/1 86/83/1 96/92/1
f 87/84/1 97/93/1 96/92/1
f 87/84/1 88/85/1 98/94/1
f 88/85/1 89/86/1 99/95/1
f 89/86/1 90/87/1 100/96/1
f 1/97/1 2/1/1 11/3/1
f 12/2/1 2/1/1 13/5/1
f 13/5/1 3/4/1 14/7/1
f 4/6/1 5/8/1 14/7/1
f 5/8/1 6/10/1 15/9/1
f 6/10/1 7/12/1 16/11/1
f 17/13/1 7/12/1 18/15/1
f 8/14/1 9/16/1 18/15/1
f 19/17/1 9/16/1 20/19/1
f 11/3/1 12/2/1 21/21/1
f 12/2/1 13/5/1 22/20/1
f 13/5/1 14/7/1 23/22/1
f 14/7/1 15/9/1 24/23/1
f 25/24/1 15/9/1 26/25/1
f 16/11/1 17/13/1 26/25/1
f 27/26/24 17/13/24 28/27/24
f 28/27/1 18/15/1 29/28/1
f 19/17/1 20/19/1 29/28/1
f 31/98/1 21/21/1 32/30/1
f 22/20/1 23/22/1 32/30/1
f 33/31/1 23/22/1 34/32/1
f 34/32/25 24/23/25 35/33/25
f 25/24/3 26/25/3 35/33/3
f 26/25/26 27/26/26 36/34/26
f 37/35/5 27/26/5 38/36/5
f 38/36/1 28/27/1 39/37/1
f 39/37/1 29/28/1 40/38/1
f 31/98/1 32/30/1 41/40/1
f 32/30/1 33/31/1 42/39/1
f 33/31/1 34/32/1 43/41/1
f 34/32/25 35/33/25 44/42/25
f 45/43/7 35/33/7 46/44/7
f 46/44/1 36/34/1 47/45/1
f 37/35/1 38/36/1 47/45/1
f 38/36/1 39/37/1 48/46/1
f 39/37/1 40/38/1 49/47/1
f 41/40/1 42/39/1 51/50/1
f 42/39/1 43/41/1 52/49/1
f 43/41/1 44/42/1 53/51/1
f 44/42/1 45/43/1 54/52/1
f 55/53/1 45/43/1 56/54/1
f 56/54/27 46/44/27 57/55/27
f 57/55/28 47/45/28 58/56/28
f 58/56/1 48/46/1 59/57/1
f 49/47/1 50/48/1 59/57/1
f 51/50/1 52/49/1 61/60/1
f 52/49/1 53/51/1 62/59/1
f 63/61/1 53/51/1 64/62/1
f 64/62/29 54/52/29 65/63/29
f 55/53/9 56/54/9 65/63/9
f 56/54/27 57/55/27 66/64/27
f 67/65/30 57/55/30 68/66/30
f 58/56/31 59/57/31 68/66/31
f 59/57/32 60/58/32 69/67/32
f 71/99/1 61/60/1 72/69/1
f 72/69/1 62/59/1 73/70/1
f 63/61/1 64/62/1 73/70/1
f 74/71/33 64/62/33 75/72/33
f 65/63/34 66/64/34 75/72/34
f 76/73/35 66/64/35 77/74/35
f 77/74/36 67/65/36 78/75/36
f 68/66/37 69/67/37 78/75/37
f 79/76/38 69/67/38 80/77/38
f 71/99/1 72/69/1 81/79/1
f 72/69/1 73/70/1 82/78/1
f 73/70/1 74/71/1 83/80/1
f 84/81/1 74/71/1 85/82/1
f 75/72/39 76/73/39 85/82/39
f 86/83/21 76/73/21 87/84/21
f 87/84/1 77/74/1 88/85/1
f 78/75/40 79/76/40 88/85/40
f 89/86/1 79/76/1 90/87/1
f 91/100/1 81/79/1 92/88/1
f 92/88/1 82/78/1 93/89/1
f 83/80/1 84/81/1 93/89/1
f 94/90/1 84/81/1 95/91/1
f 95/91/1 85/82/1 96/92/1
f 86/83/1 87/84/1 96/92/1
f 97/93/1 87/84/1 98/94/1
f 98/94/1 88/85/1 99/95/1
f 99/95/1 89/86/1 100/96/1
